<svg width="50" height="43" viewBox="0 0 50 43" fill="none" xmlns="http://www.w3.org/2000/svg">
<path fill-rule="evenodd" clip-rule="evenodd" d="M47.619 39.7675C47.619 40.3641 47.0798 40.85 46.4238 40.85H3.57619C2.91429 40.85 2.38095 40.3684 2.38095 39.7675V16.125V11.825V10.75H5.95238H13.0952H16.6667H20.2381H35.1905H47.619V16.125V39.7675ZM3.57619 2.15H5.95238H13.0952H16.6667H20.2381H46.4238C47.0821 2.15 47.6131 2.62837 47.6179 3.225C47.6179 3.22715 47.619 3.2293 47.619 3.23253V8.6H20.2381H16.6667H13.0952H5.95238H2.38095V3.23253C2.38095 3.2293 2.38214 3.22715 2.38214 3.225C2.3869 2.63267 2.92262 2.15 3.57619 2.15ZM46.4238 0C48.3964 0 49.994 1.43942 49.9988 3.225C49.9988 3.22715 50 3.23038 50 3.23253V39.7675C50 41.5531 48.3929 43 46.4238 43H3.57619C1.60119 43 0 41.5563 0 39.7675L0.000595238 3.22876C0.0047619 1.82427 1.00238 0.643925 2.38095 0.198875C2.75595 0.0774 3.15476 0 3.57619 0H46.4238ZM27.3807 15.2577C27.1926 15.3749 27.0271 15.5264 26.9379 15.7328L26.7688 16.1252L22.751 25.3939L19.1295 33.7531C18.889 34.3056 19.1914 34.9291 19.8045 35.1452C20.4176 35.3613 21.1081 35.0882 21.3474 34.5367L22.751 31.2945L27.3807 20.6101L29.1545 16.5165C29.2105 16.3875 29.2307 16.2553 29.2307 16.1252C29.2307 15.6952 28.951 15.2889 28.4807 15.1233C28.0974 14.9879 27.6962 15.061 27.3807 15.2577ZM14.7671 18.5898L13.0957 20.0991L8.88024 23.9046C8.41476 24.3249 8.41476 25.0054 8.88024 25.4246L13.0957 29.2312L14.7671 30.7416C15.2326 31.1608 15.985 31.1608 16.4505 30.7416C16.916 30.3212 16.916 29.6397 16.4505 29.2215L13.0957 26.1911L11.4052 24.6646L13.0957 23.1392L16.4505 20.1098C16.916 19.6895 16.916 19.0101 16.4505 18.5898C15.985 18.1694 15.2326 18.1694 14.7671 18.5898ZM33.6821 18.5898C33.2167 19.0101 33.2167 19.6895 33.6821 20.1098L35.1905 21.4718L38.7262 24.6646L35.1905 27.8595L33.6821 29.2215C33.2167 29.6397 33.2167 30.3212 33.6821 30.7416C34.0952 31.1135 34.7262 31.1372 35.1905 30.8458C35.2476 30.8104 35.3131 30.7889 35.3655 30.7416L41.2524 25.4246C41.7179 25.0054 41.7179 24.3249 41.2524 23.9046L35.3655 18.5898C35.3131 18.5435 35.2476 18.521 35.1905 18.4844C34.7262 18.1952 34.0952 18.2157 33.6821 18.5898ZM5.95238 4.29978C5.29405 4.29978 4.7619 4.78031 4.7619 5.37478C4.7619 5.96926 5.29405 6.44978 5.95238 6.44978C6.61071 6.44978 7.14286 5.96926 7.14286 5.37478C7.14286 4.78031 6.61071 4.29978 5.95238 4.29978ZM9.52381 4.29978C8.86548 4.29978 8.33333 4.78031 8.33333 5.37478C8.33333 5.96926 8.86548 6.44978 9.52381 6.44978C10.1821 6.44978 10.7143 5.96926 10.7143 5.37478C10.7143 4.78031 10.1821 4.29978 9.52381 4.29978ZM13.0952 4.29978C12.4369 4.29978 11.9048 4.78031 11.9048 5.37478C11.9048 5.96926 12.4369 6.44978 13.0952 6.44978C13.7536 6.44978 14.2857 5.96926 14.2857 5.37478C14.2857 4.78031 13.7536 4.29978 13.0952 4.29978Z" fill="#1097f7"/>
</svg>
