<svg width="48" height="43" viewBox="0 0 48 43" fill="none" xmlns="http://www.w3.org/2000/svg">
<g clip-path="url(#clip0_22_27)">
<path fill-rule="evenodd" clip-rule="evenodd" d="M39.9291 39.4768L44.1328 35.712L45.3941 40.6067L39.9291 39.4768ZM25.6247 27.1735L24.0337 25.7482L19.2596 21.4714L17.6686 20.0461L7.81997 11.2234L12.593 6.94655L22.4416 15.7693L24.0337 17.1946L28.8067 21.4714L30.3977 22.8967L42.8264 34.0307L38.0534 38.3075L25.6247 27.1735ZM9.85316 38.4506L6.0827 39.8981L3.46329 37.5515L5.08017 34.1718L17.6675 22.8967L22.4416 27.1735L9.85316 38.4506ZM3.0391 6.9405C2.60703 6.55243 2.60816 5.91338 3.04585 5.52027L6.22785 2.66973C6.67004 2.27461 7.37665 2.2736 7.81322 2.66369L11.002 5.52027L6.22785 9.79709L3.0391 6.9405ZM37.3941 5.22594L42.1682 9.50175L30.3977 20.0461L25.6247 15.7683L37.3941 5.22594ZM43.3631 2.01657C43.3665 2.01455 43.3575 2.01455 43.3665 2.02262L45.744 4.15246C45.7508 4.1585 45.7508 4.15447 45.7508 4.15548L42.5665 7.00703L40.18 4.86912L43.3631 2.01657ZM46.0096 34.0307L31.9899 21.4714L41.3423 13.0931L42.2188 13.8794C42.6588 14.2735 42.6588 14.9115 42.2166 15.3077L37.8014 19.2619C37.3626 19.656 37.3626 20.2941 37.8014 20.6872C38.2413 21.0813 38.9536 21.0813 39.3924 20.6872L43.8076 16.7339C45.1285 15.5506 45.1297 13.6354 43.811 12.4541L42.9333 11.6679L43.7592 10.927L45.3502 9.50175L44.1575 8.4333L47.3418 5.58075C48.225 4.78748 48.216 3.51643 47.335 2.72618L44.9575 0.59634C44.0675 -0.200964 42.6498 -0.194916 41.7721 0.5913L38.5879 3.44385L37.3941 2.3744L35.8031 3.79967H35.802V3.80068L24.0337 14.343L9.40422 1.23842C8.08664 0.0590923 5.95555 0.0631241 4.63685 1.24446L1.45485 4.095C0.140647 5.27231 0.132771 7.18846 1.4481 8.36577L4.63685 11.2224L4.94065 11.4945L6.22785 12.6486L16.0765 21.4714L3.182 33.0227L0.795499 38.0122L2.3865 39.4374L0 41.5753L1.591 43.0006L3.9775 40.8627L5.56962 42.288L11.1392 40.1501L24.0337 28.5987L36.4613 39.7328L38.0523 41.158L46.2031 42.8434C47.4048 43.0913 48.1699 42.416 47.8897 41.3314L46.0096 34.0307Z" fill="#1097f7"/>
</g>
<defs>
<clipPath id="clip0_22_27">
<rect width="48" height="43" fill="white"/>
</clipPath>
</defs>
</svg>
