<?xml version="1.0" encoding="utf-8"?>
<!-- Generator: Adobe Illustrator 16.0.0, SVG Export Plug-In . SVG Version: 6.00 Build 0)  -->
<!DOCTYPE svg PUBLIC "-//W3C//DTD SVG 1.1//EN" "http://www.w3.org/Graphics/SVG/1.1/DTD/svg11.dtd">
<svg version="1.1" id="Layer_1" xmlns="http://www.w3.org/2000/svg" xmlns:xlink="http://www.w3.org/1999/xlink" x="0px" y="0px"
	 width="2500px" height="2500px" viewBox="0 0 2500 2500" enable-background="new 0 0 2500 2500" xml:space="preserve">
<g>
	<g>
		<path id="XMLID_94_" fill="#FFFFFF" d="M1830.755,47.599h471.861c15.896,0,23.843,19.77,12.621,31.329l-1125.533,1158.81
			c-6.956,7.198-6.956,18.768,0,25.954l1125.533,1158.779c11.222,11.561,3.274,31.363-12.621,31.363h-497.94
			c-4.715,0-9.273-1.945-12.607-5.377L647.92,1270.469c-6.98-7.174-6.961-18.873,0.072-25.989L1818.197,52.904
			C1821.543,49.514,1826.047,47.599,1830.755,47.599z"/>
		<g id="XMLID_95_">
			<path id="XMLID_96_" fill="#FFFFFF" d="M651.972,953.03c0,177.213-51.115,263.087-188.264,299.069
				c137.149,33.236,188.264,119.094,188.264,296.305v454.094c0,138.457,64.526,196.572,255.48,196.572v254.748H791.816
				c-301.227,0-419.573-96.904-419.573-354.402v-570.428c0-105.195-34.964-146.736-115.64-146.736l0,0
				c-46.062,0-83.387-38.469-83.387-85.852v-91.356c0-47.425,37.325-85.86,83.387-85.86l0,0c80.675,0,115.64-41.515,115.64-146.742
				V399.245c0-254.729,118.346-351.653,419.573-351.653h115.636v254.764c-190.954,0-255.48,58.151-255.48,196.564V953.03z"/>
		</g>
	</g>
</g>
</svg>
