<?xml version="1.0" encoding="utf-8"?>
<!-- Generator: Adobe Illustrator 16.0.0, SVG Export Plug-In . SVG Version: 6.00 Build 0)  -->
<!DOCTYPE svg PUBLIC "-//W3C//DTD SVG 1.1//EN" "http://www.w3.org/Graphics/SVG/1.1/DTD/svg11.dtd">
<svg version="1.1" id="Layer_1" xmlns="http://www.w3.org/2000/svg" xmlns:xlink="http://www.w3.org/1999/xlink" x="0px" y="0px"
	 width="2500px" height="2500px" viewBox="0 0 2500 2500" enable-background="new 0 0 2500 2500" xml:space="preserve">
<g>
	<g>
		<path id="XMLID_94_" fill="#87D4ED" d="M4514.192,59.6h471.861c15.896,0,23.843,19.77,12.621,31.329l-1125.533,1158.81
			c-6.956,7.198-6.956,18.768,0,25.953l1125.533,1158.779c11.222,11.561,3.274,31.364-12.621,31.364h-497.94
			c-4.715,0-9.274-1.946-12.607-5.377L3331.357,1282.469c-6.98-7.173-6.961-18.873,0.072-25.988L4501.635,64.905
			C4504.98,61.514,4509.484,59.6,4514.192,59.6z"/>
		<g id="XMLID_95_">
			<path id="XMLID_96_" fill="#00263C" d="M3335.409,965.031c0,177.213-51.115,263.087-188.264,299.069
				c137.149,33.237,188.264,119.094,188.264,296.306v454.093c0,138.457,64.526,196.573,255.48,196.573v254.747h-115.636
				c-301.227,0-419.573-96.903-419.573-354.401v-570.429c0-105.194-34.964-146.736-115.64-146.736l0,0
				c-46.062,0-83.387-38.469-83.387-85.852v-91.355c0-47.425,37.325-85.86,83.387-85.86l0,0c80.675,0,115.64-41.515,115.64-146.742
				V411.246c0-254.729,118.346-351.653,419.573-351.653h115.636v254.764c-190.954,0-255.48,58.151-255.48,196.564V965.031z"/>
		</g>
	</g>
</g>
<g>
	<g>
		<path id="XMLID_22_" fill="#87D4ED" d="M1571.843,235.349h283.177c9.539,0,14.309,11.864,7.574,18.801l-675.463,695.433
			c-4.174,4.32-4.174,11.263,0,15.576l675.463,695.415c6.734,6.938,1.965,18.822-7.574,18.822h-298.827
			c-2.83,0-5.566-1.168-7.566-3.227L861.992,969.226c-4.189-4.305-4.178-11.326,0.043-15.597l702.272-715.096
			C1566.315,236.498,1569.018,235.349,1571.843,235.349z"/>
		<g id="XMLID_19_">
			<path id="XMLID_20_" fill="#00263C" d="M864.424,778.723c0,106.351-30.676,157.886-112.982,179.479
				c82.307,19.946,112.982,71.471,112.982,177.821v272.513c0,83.092,38.724,117.969,153.32,117.969v152.881h-69.396
				c-180.774,0-251.797-58.154-251.797-212.686v-342.33c0-63.13-20.983-88.06-69.398-88.06l0,0
				c-27.644,0-50.043-23.086-50.043-51.522v-54.825c0-28.461,22.399-51.527,50.043-51.527l0,0c48.415,0,69.398-24.914,69.398-88.063
				V446.381c0-152.87,71.022-211.037,251.797-211.037h69.396v152.891c-114.597,0-153.32,34.898-153.32,117.963V778.723z"/>
		</g>
	</g>
	<text transform="matrix(1 0 0 1.03 61.8945 2026.5312)"><tspan x="0" y="0" fill="#00263C" font-family="'GothamBlack'" font-size="385.53" letter-spacing="-13">KEETB</tspan><tspan x="1258.356" y="0" fill="#87D4ED" font-family="'GothamBlack'" font-size="385.53" letter-spacing="-13">.</tspan><tspan x="1354.352" y="0" fill="#00263C" font-family="'GothamBlack'" font-size="385.53" letter-spacing="-13">IS</tspan><tspan x="1704.794" y="0" fill="#87D4ED" font-family="'GothamBlack'" font-size="385.53" letter-spacing="-13">.</tspan><tspan x="1800.791" y="0" fill="#00263C" font-family="'GothamBlack'" font-size="385.53" letter-spacing="-13">ME</tspan></text>
</g>
<g>
	<g>
		<path id="XMLID_12_" fill="#87D4ED" d="M9241.664,85.082h127.02c4.277,0,6.418,5.321,3.398,8.434L9069.104,405.45
			c-1.873,1.938-1.873,5.051,0,6.984l302.979,311.928c3.02,3.112,0.879,8.443-3.398,8.443h-134.037
			c-1.271,0-2.498-0.524-3.396-1.449L8923.264,414.26c-1.881-1.932-1.877-5.08,0.02-6.996l315-320.754
			C9239.184,85.596,9240.396,85.082,9241.664,85.082z"/>
		<g id="XMLID_9_">
			<path id="XMLID_10_" fill="#00263C" d="M8924.354,328.81c0,47.704-13.76,70.819-50.678,80.505
				c36.918,8.947,50.678,32.059,50.678,79.762v122.235c0,37.271,17.369,52.914,68.771,52.914v68.575h-31.127
				c-81.088,0-112.943-26.086-112.943-95.4V483.85c0-28.318-9.412-39.5-31.129-39.5l0,0c-12.398,0-22.445-10.355-22.445-23.109
				v-24.592c0-12.768,10.047-23.113,22.445-23.113l0,0c21.717,0,31.129-11.174,31.129-39.5V179.739
				c0-68.568,31.855-94.66,112.943-94.66h31.127v68.58c-51.402,0-68.771,15.653-68.771,52.912V328.81z"/>
		</g>
	</g>
	<text transform="matrix(1 0 0 1.03 9011.0645 731.4131)"><tspan x="0" y="0" fill="#00263C" font-family="'GothamBlack'" font-size="98.1836" letter-spacing="-3">KEETB</tspan><tspan x="320.467" y="0" fill="#87D4ED" font-family="'GothamBlack'" font-size="98.1836" letter-spacing="-3">.</tspan><tspan x="344.914" y="0" fill="#00263C" font-family="'GothamBlack'" font-size="98.1836" letter-spacing="-3">IS</tspan><tspan x="434.162" y="0" fill="#87D4ED" font-family="'GothamBlack'" font-size="98.1836" letter-spacing="-3">.</tspan><tspan x="458.609" y="0" fill="#00263C" font-family="'GothamBlack'" font-size="98.1836" letter-spacing="-3">ME</tspan></text>
</g>
<g>
	<g>
		<path id="XMLID_8_" fill="#87D4ED" d="M8887.326,1036.086h73.346c2.471,0,3.707,3.072,1.963,4.87l-174.955,180.128
			c-1.082,1.118-1.082,2.916,0,4.033l174.955,180.123c1.744,1.797,0.508,4.875-1.963,4.875h-77.4c-0.732,0-1.441-0.303-1.959-0.836
			l-177.85-183.108c-1.084-1.116-1.082-2.934,0.012-4.04l181.898-185.221C8885.893,1036.383,8886.594,1036.086,8887.326,1036.086z"
			/>
		<g id="XMLID_1_">
			<path id="XMLID_6_" fill="#00263C" d="M8676.162,1176.827c0,27.548-7.947,40.896-29.266,46.488
				c21.318,5.167,29.266,18.513,29.266,46.06v70.584c0,21.522,10.029,30.555,39.711,30.555v39.6h-17.975
				c-46.822,0-65.219-15.063-65.219-55.09v-88.667c0-16.353-5.436-22.81-17.975-22.81l0,0c-7.16,0-12.963-5.98-12.963-13.346
				v-14.199c0-7.373,5.803-13.348,12.963-13.348l0,0c12.539,0,17.975-6.452,17.975-22.809v-89.1
				c0-39.596,18.396-54.661,65.219-54.661h17.975v39.601c-29.682,0-39.711,9.04-39.711,30.555V1176.827z"/>
		</g>
	</g>
	<text transform="matrix(1 0 0 1.03 8689.9199 1313.0107)"><tspan x="0" y="0" fill="#00263C" font-family="'GothamBlack'" font-size="245.159" letter-spacing="-8">KEETB</tspan><tspan x="800.191" y="0" fill="#87D4ED" font-family="'GothamBlack'" font-size="245.159" letter-spacing="-8">.</tspan><tspan x="861.234" y="0" fill="#00263C" font-family="'GothamBlack'" font-size="245.159" letter-spacing="-8">IS</tspan><tspan x="1084.082" y="0" fill="#87D4ED" font-family="'GothamBlack'" font-size="245.159" letter-spacing="-8">.</tspan><tspan x="1145.125" y="0" fill="#00263C" font-family="'GothamBlack'" font-size="245.159" letter-spacing="-8">ME</tspan></text>
</g>
<text transform="matrix(1 0 0 1.03 8702.875 1761.0107)"><tspan x="0" y="0" fill="#87D4ED" font-family="'GothamBlack'" font-size="245.159" letter-spacing="-8">K</tspan><tspan x="170.385" y="0" fill="#00263C" font-family="'GothamBlack'" font-size="245.159" letter-spacing="-8">EETB</tspan><tspan x="800.189" y="0" fill="#87D4ED" font-family="'GothamBlack'" font-size="245.159" letter-spacing="-8">I</tspan><tspan x="871.775" y="0" fill="#00263C" font-family="'GothamBlack'" font-size="245.159" letter-spacing="-8">S</tspan><tspan x="1023.037" y="0" fill="#87D4ED" font-family="'GothamBlack'" font-size="245.159" letter-spacing="-8">M</tspan><tspan x="1227.254" y="0" fill="#00263C" font-family="'GothamBlack'" font-size="245.159" letter-spacing="-8">E</tspan></text>
<g>
	<g id="XMLID_2_">
		<path id="XMLID_3_" fill="#00263C" d="M9822.363,2031.148c0-31.754-14.803-45.096-58.615-45.096v-58.446h26.531
			c69.109,0,96.262,22.237,96.262,80.675v131.502c0,24.141,8.023,33.665,26.525,33.665l0,0c10.568,0,19.129,8.817,19.129,19.697
			v20.959c0,10.87-8.561,19.696-19.129,19.696l0,0c-18.502,0-26.525,9.528-26.525,33.664v130.866
			c0,59.073-27.152,81.307-96.262,81.307h-26.531v-58.444c43.812,0,58.615-13.332,58.615-45.098v-104.177
			c0-40.657,11.723-60.353,43.189-67.978c-31.467-8.255-43.189-27.956-43.189-68.613V2031.148z"/>
	</g>
	<g id="XMLID_13_">
		<path id="XMLID_14_" fill="#00263C" d="M8973.58,2135.328c0,40.657-11.723,60.358-43.191,68.613
			c31.469,7.625,43.191,27.32,43.191,67.978v104.177c0,31.766,14.803,45.098,58.615,45.098v58.444h-26.533
			c-69.107,0-96.262-22.233-96.262-81.307v-130.866c0-24.136-8.021-33.664-26.525-33.664l0,0c-10.568,0-19.127-8.826-19.127-19.696
			v-20.959c0-10.88,8.559-19.697,19.127-19.697l0,0c18.504,0,26.525-9.524,26.525-33.665v-131.502
			c0-58.438,27.154-80.675,96.262-80.675h26.533v58.446c-43.812,0-58.615,13.342-58.615,45.096V2135.328z"/>
	</g>
	<text transform="matrix(1 0 0 1.03 9021.3027 2174.4033)"><tspan x="0" y="0" fill="#00263C" font-family="'GothamBlack'" font-size="230.04" letter-spacing="-8">KEETB</tspan><tspan x="0" y="199.742" fill="#87D4ED" font-family="'GothamBlack'" font-size="260.4227" letter-spacing="7">IS ME</tspan></text>
</g>
<rect x="5492.705" y="-24.383" fill="#87D4ED" width="1175.766" height="2263.639"/>
<linearGradient id="SVGID_1_" gradientUnits="userSpaceOnUse" x1="6778.4478" y1="1107.3423" x2="8003.2046" y2="1107.3423">
	<stop  offset="0" style="stop-color:#FFFFFF"/>
	<stop  offset="1" style="stop-color:#000000"/>
</linearGradient>
<rect x="6778.948" y="-24.478" fill="#00263C" stroke="url(#SVGID_1_)" stroke-miterlimit="10" width="1223.757" height="2263.64"/>
<text transform="matrix(1 0 0 1 5737.3584 2409.1436)" font-family="'MyriadPro-Regular'" font-size="143">#87d4ec</text>
<text transform="matrix(1 0 0 1 7170.0601 2414.1426)" font-family="'MyriadPro-Regular'" font-size="143">#00263b</text>
</svg>
