<?xml version="1.0" encoding="utf-8"?>
<!-- Generator: Adobe Illustrator 16.0.0, SVG Export Plug-In . SVG Version: 6.00 Build 0)  -->
<!DOCTYPE svg PUBLIC "-//W3C//DTD SVG 1.1//EN" "http://www.w3.org/Graphics/SVG/1.1/DTD/svg11.dtd">
<svg version="1.1" id="Layer_1" xmlns="http://www.w3.org/2000/svg" xmlns:xlink="http://www.w3.org/1999/xlink" x="0px" y="0px"
	 width="2500px" height="2500px" viewBox="0 0 2500 2500" enable-background="new 0 0 2500 2500" xml:space="preserve">
<g>
	<g>
		<path id="XMLID_22_" fill="#FFFFFF" d="M1565.844,352.349h283.176c9.539,0,14.309,11.864,7.574,18.801l-675.463,695.433
			c-4.174,4.32-4.174,11.263,0,15.576l675.463,695.415c6.734,6.938,1.965,18.822-7.574,18.822h-298.826
			c-2.83,0-5.566-1.168-7.566-3.227l-686.635-706.943c-4.189-4.305-4.178-11.326,0.043-15.597l702.271-715.096
			C1560.314,353.498,1563.018,352.349,1565.844,352.349z"/>
		<g id="XMLID_19_">
			<path id="XMLID_20_" fill="#FFFFFF" d="M858.424,895.723c0,106.351-30.676,157.886-112.982,179.479
				c82.307,19.946,112.982,71.471,112.982,177.821v272.513c0,83.092,38.724,117.969,153.32,117.969v152.881h-69.396
				c-180.774,0-251.797-58.154-251.797-212.686v-342.33c0-63.13-20.983-88.06-69.398-88.06l0,0
				c-27.644,0-50.043-23.086-50.043-51.522v-54.825c0-28.461,22.399-51.527,50.043-51.527l0,0c48.415,0,69.398-24.914,69.398-88.063
				V563.381c0-152.87,71.022-211.037,251.797-211.037h69.396v152.891c-114.597,0-153.32,34.898-153.32,117.963V895.723z"/>
		</g>
	</g>
	<g>
		<path fill="#FFFFFF" d="M79.797,1865.564h74.792v112.775l92.913-112.775h88.671l-102.165,119.526l105.635,158.44h-89.828
			l-67.853-103.244l-27.373,31.37v71.874H79.797V1865.564z"/>
		<path fill="#FFFFFF" d="M347.739,1865.564h217.053v65.521H421.761v42.092h129.538v60.756H421.761v44.077h144.958v65.521h-218.98
			V1865.564z"/>
		<path fill="#FFFFFF" d="M591.391,1865.564h217.053v65.521H665.413v42.092H794.95v60.756H665.413v44.077h144.958v65.521h-218.98
			V1865.564z"/>
		<path fill="#FFFFFF" d="M900.968,1933.071h-80.961v-67.507h236.714v67.507h-80.961v210.46h-74.792V1933.071z"/>
		<path fill="#FFFFFF" d="M1075.995,1865.564h138.405c33.926,0,57.829,8.736,73.636,25.018c10.795,11.118,17.35,25.811,17.35,44.871
			v0.795c0,32.164-17.734,51.225-41.639,61.946c32.771,11.119,53.59,30.18,53.59,67.903v0.794c0,47.651-37.783,76.64-102.166,76.64
			h-139.176V1865.564z M1195.894,1976.354c22.746,0,35.469-7.942,35.469-24.223v-0.794c0-15.09-11.566-23.826-33.927-23.826h-48.577
			v48.843H1195.894z M1206.689,2081.584c22.746,0,35.854-9.133,35.854-25.414v-0.794c0-15.089-11.566-25.017-36.625-25.017h-57.058
			v51.225H1206.689z"/>
		<path fill="#FFFFFF" d="M1330.828,2066.098h76.334v77.434h-76.334V2066.098z"/>
		<path fill="#FFFFFF" d="M1435.691,1865.564h75.178v277.967h-75.178V1865.564z"/>
		<path fill="#FFFFFF" d="M1526.289,2102.233l41.637-51.226c26.602,21.841,56.287,33.356,87.516,33.356
			c20.047,0,30.842-7.147,30.842-19.061v-0.794c0-11.516-8.867-17.869-45.492-26.605c-57.443-13.502-101.779-30.18-101.779-87.361
			v-0.794c0-51.622,39.709-88.949,104.479-88.949c45.879,0,81.732,12.707,111.033,36.93l-37.396,54.402
			c-24.674-17.869-51.662-27.399-75.564-27.399c-18.119,0-26.986,7.941-26.986,17.869v0.794c0,12.707,9.252,18.267,46.648,27.003
			c62.07,13.897,100.623,34.547,100.623,86.566v0.794c0,56.784-43.564,90.538-109.105,90.538
			C1604.938,2148.297,1559.445,2132.81,1526.289,2102.233z"/>
		<path fill="#FFFFFF" d="M1777.268,2066.098h76.334v77.434h-76.334V2066.098z"/>
		<path fill="#FFFFFF" d="M1880.588,1865.564h79.033l64.383,107.613l64.385-107.613h79.033v277.967h-74.408v-159.632l-69.01,108.804
			h-1.541l-68.625-108.01v158.838h-73.25V1865.564z"/>
		<path fill="#FFFFFF" d="M2201.732,1865.564h217.053v65.521h-143.031v42.092h129.537v60.756h-129.537v44.077h144.959v65.521
			h-218.98V1865.564z"/>
	</g>
</g>
</svg>
