<svg width="40" height="43" viewBox="0 0 40 43" fill="none" xmlns="http://www.w3.org/2000/svg">
<path fill-rule="evenodd" clip-rule="evenodd" d="M37.2 32.25H4.7964C3.9216 32.25 3.1092 32.4779 2.4 32.8488V4.3C2.4 3.11535 3.4776 2.15 4.7964 2.15H37.2V32.25ZM37.2 36.55H8.4V38.7H37.2V40.85H4.7964C3.8952 40.85 3.1176 40.3942 2.7084 39.7331C2.5188 39.4235 2.4 39.0719 2.4 38.6892V36.5607C2.4 35.3686 3.48 34.4 4.7964 34.4H37.2V36.55ZM39.6 0V43H4.7964C2.8812 43 1.242 41.9895 0.474 40.5307C0.1776 39.9728 0 39.3568 0 38.7V4.3C0 1.92533 2.1576 0 4.7964 0H39.6ZM19.1652 8.90637L13.1652 12.1314C12.4428 12.5194 12 13.2204 12 13.975V20.425C12 21.1796 12.4428 21.8805 13.1652 22.2686L19.1652 25.4936C19.9248 25.9021 20.8752 25.9021 21.6348 25.4936L27.6348 22.2686C28.3572 21.8805 28.8 21.1796 28.8 20.425V13.975C28.8 13.2204 28.3572 12.5194 27.6348 12.1314L21.6348 8.90637C20.8752 8.49788 19.9248 8.49788 19.1652 8.90637ZM20.4 10.75L26.4 13.975V20.425L20.4 23.65L14.4 20.425V13.975L20.4 10.75Z" fill="#1097f7"/>
</svg>
